<svg width="84" height="85" viewBox="0 0 84 85" fill="none" xmlns="http://www.w3.org/2000/svg">
<path d="M83.0672 57.9269C79.4561 67.0889 72.7425 74.7299 64.0705 79.548C55.3984 84.366 45.3043 86.0631 35.5082 84.35C25.7121 82.6369 16.82 77.6196 10.3471 70.153C3.87415 62.6864 0.220858 53.2325 0.00968847 43.4021C-0.201481 33.5718 3.04253 23.9731 9.18899 16.2417C15.3355 8.51033 24.0041 3.12454 33.7178 1.00202C43.4315 -1.1205 53.5893 0.151583 62.4605 4.60152C71.3317 9.05146 78.3673 16.4039 82.3686 25.4061L72.001 29.9078C69.0534 23.2763 63.8706 17.86 57.3356 14.582C50.8007 11.3039 43.3179 10.3668 36.1622 11.9304C29.0066 13.494 22.6208 17.4614 18.093 23.1568C13.5652 28.8521 11.1755 35.923 11.3311 43.1646C11.4866 50.4061 14.1778 57.3704 18.9461 62.8707C23.7144 68.3709 30.2648 72.0669 37.4812 73.3289C44.6975 74.5909 52.1333 73.3407 58.5216 69.7915C64.9099 66.2422 69.8555 60.6135 72.5156 53.8643L83.0672 57.9269Z" fill="white"/>
</svg>
