<svg width="58" height="61" viewBox="0 0 58 61" fill="none" xmlns="http://www.w3.org/2000/svg">
<path d="M57.9538 41.5711C55.4345 48.1461 50.7506 53.6297 44.7003 57.0874C38.65 60.545 31.6077 61.7629 24.7732 60.5335C17.9387 59.3041 11.7349 55.7035 7.21889 50.3451C2.70289 44.9867 0.154087 38.2022 0.0067594 31.1474C-0.140568 24.0927 2.1227 17.2042 6.41093 11.6558C10.6992 6.10741 16.747 2.24231 23.524 0.719095C30.3011 -0.804124 37.3879 0.108783 43.5771 3.30227C49.7663 6.49575 54.6749 11.7722 57.4664 18.2326L50.2332 21.4632C48.1768 16.7041 44.5609 12.8172 40.0016 10.4647C35.4423 8.11223 30.2218 7.43973 25.2295 8.56182C20.2372 9.6839 15.782 12.5311 12.623 16.6184C9.46411 20.7056 7.79687 25.78 7.9054 30.9769C8.01393 36.1738 9.89151 41.1717 13.2182 45.1189C16.545 49.0662 21.115 51.7186 26.1496 52.6243C31.1843 53.5299 36.3721 52.6328 40.829 50.0856C45.286 47.5385 48.7364 43.4991 50.5923 38.6555L57.9538 41.5711Z" fill="black"/>
</svg>
