<svg width="24" height="22" viewBox="0 0 24 22" fill="none" xmlns="http://www.w3.org/2000/svg">
<path d="M10.08 1.31995C5.57817 1.31995 1.92004 4.67323 1.92004 8.79995C1.92004 12.9267 5.57817 16.2799 10.08 16.2799C11.8613 16.2799 13.5075 15.754 14.85 14.8637L21.165 20.6387L22.515 19.4012L16.275 13.6674C17.5013 12.3578 18.24 10.6579 18.24 8.79995C18.24 4.67323 14.5819 1.31995 10.08 1.31995ZM10.08 2.19995C14.0625 2.19995 17.28 5.14932 17.28 8.79995C17.28 12.4506 14.0625 15.3999 10.08 15.3999C6.09754 15.3999 2.88004 12.4506 2.88004 8.79995C2.88004 5.14932 6.09754 2.19995 10.08 2.19995Z" fill="black"/>
</svg>
